<?xml version="1.0" encoding="utf-8"?>
<!-- Generator: Adobe Illustrator 23.0.6, SVG Export Plug-In . SVG Version: 6.00 Build 0)  -->
<svg version="1.1" id="Layer_1" xmlns="http://www.w3.org/2000/svg" xmlns:xlink="http://www.w3.org/1999/xlink" x="0px" y="0px"
	 viewBox="0 0 1200 1200" enable-background="new 0 0 1200 1200" xml:space="preserve">
<g>
	<path d="M556.865,226.079c-206.175,0-373.916,167.74-373.916,373.921c0,206.181,167.741,373.921,373.916,373.921
		c206.181,0,373.921-167.74,373.921-373.921C930.786,393.819,763.046,226.079,556.865,226.079z M556.865,946.278
		c-190.934,0-346.273-155.339-346.273-346.278c0-190.94,155.338-346.279,346.273-346.279c190.94,0,346.279,155.339,346.279,346.279
		C903.144,790.939,747.805,946.278,556.865,946.278z"/>
	<path d="M556.865,348.911c7.634,0,13.822-6.187,13.822-13.821v-18.27c0-7.634-6.188-13.821-13.822-13.821
		s-13.821,6.187-13.821,13.821v18.27C543.044,342.724,549.231,348.911,556.865,348.911z"/>
	<path d="M556.865,851.084c-7.634,0-13.821,6.187-13.821,13.821v18.27c0,7.634,6.187,13.821,13.821,13.821
		s13.822-6.187,13.822-13.821v-18.27C570.687,857.271,564.499,851.084,556.865,851.084z"/>
	<path d="M821.776,613.821h18.27c7.634,0,13.821-6.187,13.821-13.821c0-7.634-6.187-13.821-13.821-13.821h-18.27
		c-7.634,0-13.821,6.187-13.821,13.821C807.955,607.634,814.142,613.821,821.776,613.821z"/>
	<path d="M291.96,586.179h-18.27c-7.634,0-13.821,6.187-13.821,13.821c0,7.634,6.187,13.821,13.821,13.821h18.27
		c7.634,0,13.822-6.187,13.822-13.821C305.781,592.366,299.594,586.179,291.96,586.179z"/>
	<path d="M696.369,374.377l8.789-16.019c3.672-6.689,1.226-15.09-5.469-18.761c-6.668-3.682-15.091-1.231-18.762,5.469
		l-8.789,16.019c-3.672,6.689-1.225,15.09,5.469,18.761c2.106,1.161,4.384,1.706,6.635,1.706
		C689.123,381.553,693.858,378.961,696.369,374.377z"/>
	<path d="M436.123,820.148c-6.701-3.666-15.091-1.22-18.767,5.475l-8.784,16.019c-3.666,6.695-1.22,15.096,5.475,18.767
		c2.11,1.155,4.389,1.701,6.635,1.701c4.881,0,9.615-2.591,12.131-7.175l8.784-16.019
		C445.264,832.22,442.818,823.819,436.123,820.148z"/>
	<path d="M811.799,724.057l-16.014-8.784c-6.667-3.677-15.096-1.231-18.761,5.469c-3.672,6.689-1.226,15.096,5.469,18.761
		l16.013,8.784c2.106,1.161,4.384,1.706,6.636,1.706c4.881,0,9.616-2.591,12.126-7.175
		C820.939,736.129,818.494,727.723,811.799,724.057z"/>
	<path d="M301.931,475.948l16.019,8.784c2.112,1.155,4.39,1.701,6.636,1.701c4.881,0,9.616-2.591,12.132-7.175
		c3.665-6.695,1.22-15.096-5.475-18.767l-16.019-8.784c-6.695-3.666-15.091-1.22-18.767,5.475
		C292.791,463.876,295.237,472.277,301.931,475.948z"/>
	<path d="M790.532,439.429l-15.544,9.599c-6.495,4.012-8.508,12.526-4.497,19.021c2.614,4.233,7.138,6.56,11.77,6.56
		c2.478,0,4.988-0.664,7.25-2.062l15.545-9.6c6.495-4.011,8.508-12.525,4.497-19.02
		C805.541,437.427,797.022,435.418,790.532,439.429z"/>
	<path d="M324.224,727.453l-15.543,9.6c-6.495,4.011-8.509,12.525-4.497,19.02c2.613,4.233,7.138,6.56,11.769,6.56
		c2.478,0,4.989-0.664,7.251-2.062l15.543-9.599c6.495-4.012,8.509-12.526,4.497-19.021
		C339.239,725.456,330.719,723.447,324.224,727.453z"/>
	<path d="M707.836,818.113c-4.017-6.49-12.525-8.498-19.025-4.492c-6.49,4.012-8.504,12.531-4.492,19.026l9.604,15.544
		c2.614,4.227,7.138,6.554,11.77,6.554c2.483,0,4.988-0.664,7.256-2.063c6.489-4.011,8.503-12.531,4.491-19.026L707.836,818.113z"/>
	<path d="M417.669,388.436c2.483,0,4.988-0.664,7.256-2.062c6.489-4.012,8.503-12.531,4.491-19.026l-9.604-15.544
		c-4.011-6.49-12.52-8.493-19.026-4.492c-6.49,4.012-8.503,12.531-4.492,19.026l9.604,15.544
		C408.513,386.109,413.037,388.436,417.669,388.436z"/>
	<path d="M657.399,537.35l-86.712,40.857V417.207c0-7.634-6.188-13.821-13.822-13.821s-13.821,6.187-13.821,13.821V600
		c0,0.088,0.025,0.169,0.026,0.257c0.009,0.51,0.087,1.017,0.154,1.528c0.054,0.413,0.082,0.831,0.172,1.231
		c0.089,0.395,0.239,0.78,0.364,1.171c0.159,0.496,0.305,0.993,0.516,1.462c0.035,0.079,0.048,0.162,0.085,0.241
		c0.067,0.142,0.181,0.242,0.253,0.381c0.468,0.912,1.029,1.755,1.68,2.535c0.174,0.21,0.331,0.43,0.517,0.627
		c0.774,0.825,1.636,1.556,2.591,2.171c0.2,0.129,0.414,0.219,0.62,0.337c0.805,0.462,1.654,0.837,2.551,1.132
		c0.293,0.096,0.576,0.195,0.875,0.272c1.068,0.273,2.168,0.459,3.32,0.467c0.037,0,0.071,0.015,0.107,0.015
		c0.241,0,0.483-0.067,0.724-0.08c0.726-0.039,1.45-0.088,2.142-0.235c0.247-0.053,0.484-0.16,0.73-0.227
		c0.706-0.192,1.399-0.408,2.056-0.704c0.075-0.034,0.153-0.043,0.228-0.078l106.424-50.146c6.905-3.255,9.864-11.489,6.614-18.394
		C672.538,537.059,664.304,534.095,657.399,537.35z"/>
	<path d="M832.46,992.1c-80.935,56.997-176.238,87.123-275.595,87.123c-264.247,0-479.223-214.976-479.223-479.222
		c0-264.247,214.976-479.222,479.223-479.222c245.656,0,450.795,186.249,476.49,427.961l-90.042-79.008l-18.224,20.816
		l124.797,109.456L1150,467.569l-22.059-16.7l-67.7,89.593c-29.61-253.068-245.365-447.327-503.376-447.327
		C277.377,93.135,50,320.512,50,600c0,279.488,227.377,506.865,506.865,506.865c105.085,0,205.889-31.87,291.511-92.166
		c6.241-4.395,7.737-13.017,3.342-19.258C847.329,989.2,838.701,987.694,832.46,992.1z"/>
	<path d="M1044.839,672.341c-7.521-1.35-14.68,3.698-16.003,11.219c-3.714,21.121-8.903,42.166-15.419,62.558
		c-2.326,7.272,1.684,15.052,8.952,17.374c1.404,0.448,2.818,0.664,4.216,0.664c5.847,0,11.284-3.747,13.157-9.616
		c6.9-21.579,12.391-43.85,16.316-66.197C1057.381,680.828,1052.36,673.658,1044.839,672.341z"/>
	<path d="M919.254,913.593c-14.037,16.213-29.294,31.611-45.351,45.783c-5.723,5.048-6.268,13.784-1.214,19.507
		c2.731,3.094,6.538,4.675,10.366,4.675c3.251,0,6.512-1.139,9.14-3.461c16.975-14.977,33.112-31.265,47.954-48.407
		c4.999-5.771,4.374-14.501-1.398-19.495C932.984,907.19,924.253,907.827,919.254,913.593z"/>
	<path d="M1008.11,799.481c-6.9-3.277-15.144-0.356-18.427,6.527c-9.205,19.307-19.83,38.198-31.589,56.155
		c-4.179,6.387-2.392,14.95,3.995,19.134c2.332,1.528,4.961,2.257,7.558,2.257c4.503,0,8.919-2.198,11.576-6.252
		c12.434-18.988,23.675-38.97,33.414-59.394C1017.92,811.018,1014.999,802.769,1008.11,799.481z"/>
</g>
</svg>
